<svg width="1440" height="805" viewBox="0 0 1440 805" fill="none" xmlns="http://www.w3.org/2000/svg">
<g opacity="0.6">
<rect x="35" y="37" width="30" height="30" fill="#3B487E"/>
<rect x="35" y="138" width="3" height="3" fill="#3B487E"/>
<rect x="48" y="138" width="3" height="3" fill="#3B487E"/>
<rect x="48" y="147" width="3" height="3" fill="#3B487E"/>
<rect x="35" y="147" width="3" height="3" fill="#3B487E"/>
<rect x="1371" y="418" width="3" height="3" fill="#3B487E"/>
<rect x="1384" y="418" width="3" height="3" fill="#3B487E"/>
<rect x="1384" y="427" width="3" height="3" fill="#3B487E"/>
<rect x="1371" y="427" width="3" height="3" fill="#3B487E"/>
<rect x="1091" y="418" width="3" height="3" fill="#3B487E"/>
<rect x="1104" y="418" width="3" height="3" fill="#3B487E"/>
<rect x="1104" y="427" width="3" height="3" fill="#3B487E"/>
<rect x="1091" y="427" width="3" height="3" fill="#3B487E"/>
<rect x="811" y="418" width="3" height="3" fill="#3B487E"/>
<rect x="824" y="418" width="3" height="3" fill="#3B487E"/>
<rect x="824" y="427" width="3" height="3" fill="#3B487E"/>
<rect x="811" y="427" width="3" height="3" fill="#3B487E"/>
<rect x="35" y="747" width="3" height="3" fill="#3B487E"/>
<rect x="48" y="747" width="3" height="3" fill="#3B487E"/>
<rect x="48" y="756" width="3" height="3" fill="#3B487E"/>
<rect x="35" y="756" width="3" height="3" fill="#3B487E"/>
<rect x="309" y="747" width="3" height="3" fill="#3B487E"/>
<rect x="322" y="747" width="3" height="3" fill="#3B487E"/>
<rect x="322" y="756" width="3" height="3" fill="#3B487E"/>
<rect x="309" y="756" width="3" height="3" fill="#3B487E"/>
<rect x="35" y="240" width="15" height="5" fill="#3B487E"/>
<rect x="126" y="240" width="15" height="5" fill="#3B487E"/>
<rect x="1110" y="240" width="15" height="5" fill="#3B487E"/>
<rect x="126" y="291" width="15" height="5" fill="#3B487E"/>
<rect x="217" y="240" width="15" height="5" fill="#3B487E"/>
<rect x="1201" y="240" width="15" height="5" fill="#3B487E"/>
<rect x="217" y="37" width="15" height="5" fill="#3B487E"/>
<rect x="306" y="37" width="125" height="3" fill="#3B487E"/>
<rect x="35" y="427" width="91" height="3" fill="#3B487E"/>
<rect x="35" y="686" width="91" height="3" fill="#3B487E"/>
<rect x="1133" y="717" width="91" height="3" fill="#3B487E"/>
<rect x="1296" y="95" width="91" height="3" fill="#3B487E"/>
<rect x="1367" y="85" width="20" height="3" fill="#3B487E"/>
<rect x="1199" y="707" width="25" height="3" fill="#3B487E"/>
<rect x="35" y="648" width="20" height="3" fill="#3B487E"/>
<rect x="309" y="686" width="20" height="3" fill="#3B487E"/>
<rect x="217" y="291" width="15" height="5" fill="#3B487E"/>
<rect x="35" y="191" width="3" height="3" fill="#3B487E"/>
<rect x="35" y="343" width="3" height="3" fill="#3B487E"/>
<rect x="47" y="343" width="3" height="3" fill="#3B487E"/>
<rect x="399" y="343" width="3" height="3" fill="#3B487E"/>
<rect x="411" y="343" width="3" height="3" fill="#3B487E"/>
<rect x="35" y="395" width="3" height="3" fill="#3B487E"/>
<rect x="35" y="598" width="3" height="3" fill="#3B487E"/>
<rect x="752" y="598" width="3" height="3" fill="#3B487E"/>
<rect x="752" y="474" width="3" height="3" fill="#3B487E"/>
<rect x="126" y="598" width="3" height="3" fill="#3B487E"/>
<rect x="843" y="598" width="3" height="3" fill="#3B487E"/>
<rect x="843" y="474" width="3" height="3" fill="#3B487E"/>
<rect x="126" y="747" width="3" height="3" fill="#3B487E"/>
<rect x="217" y="747" width="3" height="3" fill="#3B487E"/>
<rect x="217" y="598" width="3" height="3" fill="#3B487E"/>
<rect x="934" y="598" width="3" height="3" fill="#3B487E"/>
<rect x="934" y="474" width="3" height="3" fill="#3B487E"/>
<rect x="308" y="598" width="3" height="3" fill="#3B487E"/>
<rect x="1025" y="598" width="3" height="3" fill="#3B487E"/>
<rect x="1025" y="474" width="3" height="3" fill="#3B487E"/>
<rect x="399" y="598" width="3" height="3" fill="#3B487E"/>
<rect x="1116" y="598" width="3" height="3" fill="#3B487E"/>
<rect x="1116" y="474" width="3" height="3" fill="#3B487E"/>
<rect x="35" y="463" width="3" height="3" fill="#3B487E"/>
<rect x="743" y="137" width="3" height="3" fill="#3B487E"/>
<rect x="217" y="463" width="3" height="3" fill="#3B487E"/>
<rect x="925" y="137" width="3" height="3" fill="#3B487E"/>
<rect x="399" y="463" width="3" height="3" fill="#3B487E"/>
<rect x="1107" y="137" width="3" height="3" fill="#3B487E"/>
<rect x="745" y="748" width="3" height="3" fill="#3B487E"/>
<rect x="745" y="683" width="3" height="3" fill="#3B487E"/>
<rect x="841" y="683" width="3" height="3" fill="#3B487E"/>
<rect x="937" y="682" width="3" height="3" fill="#3B487E"/>
<rect x="1025" y="682" width="3" height="3" fill="#3B487E"/>
<rect x="1120" y="682" width="3" height="3" fill="#3B487E"/>
<rect x="1208" y="682" width="3" height="3" fill="#3B487E"/>
<rect x="1306" y="682" width="5" height="3" fill="#3B487E"/>
<rect x="1401" y="683" width="5" height="3" fill="#3B487E"/>
<rect x="1372" y="579" width="15" height="3" fill="#3B487E"/>
<rect x="1372" y="527" width="15" height="3" fill="#3B487E"/>
<rect x="1025" y="748" width="3" height="3" fill="#3B487E"/>
<rect x="1120" y="748" width="3" height="3" fill="#3B487E"/>
<rect x="1214" y="748" width="3" height="3" fill="#3B487E"/>
<rect x="1306" y="756" width="3" height="3" fill="#3B487E"/>
<rect x="1400" y="756" width="3" height="3" fill="#3B487E"/>
<rect x="1400" y="766" width="3" height="3" fill="#3B487E"/>
<rect x="126" y="463" width="3" height="3" fill="#3B487E"/>
<rect x="834" y="137" width="3" height="3" fill="#3B487E"/>
<rect x="308" y="463" width="3" height="3" fill="#3B487E"/>
<rect x="1016" y="137" width="3" height="3" fill="#3B487E"/>
<rect x="490" y="463" width="3" height="3" fill="#3B487E"/>
<rect x="1198" y="137" width="3" height="3" fill="#3B487E"/>
<rect x="581" y="463" width="3" height="3" fill="#3B487E"/>
<rect x="1289" y="137" width="3" height="3" fill="#3B487E"/>
<rect x="1289" y="53" width="3" height="3" fill="#3B487E"/>
<rect x="1198" y="53" width="3" height="3" fill="#3B487E"/>
<rect x="1099" y="53" width="3" height="3" fill="#3B487E"/>
<rect x="1008" y="53" width="3" height="3" fill="#3B487E"/>
<rect x="1025" y="633" width="3" height="3" fill="#3B487E"/>
<rect x="1120" y="633" width="3" height="3" fill="#3B487E"/>
<rect x="1208" y="633" width="3" height="3" fill="#3B487E"/>
<rect x="1384" y="633" width="3" height="3" fill="#3B487E"/>
<rect x="751" y="53" width="3" height="3" fill="#3B487E"/>
<rect x="1190" y="53" width="3" height="3" fill="#3B487E"/>
<rect x="1091" y="53" width="3" height="3" fill="#3B487E"/>
<rect x="1000" y="53" width="3" height="3" fill="#3B487E"/>
<rect x="1017" y="633" width="3" height="3" fill="#3B487E"/>
<rect x="1112" y="633" width="3" height="3" fill="#3B487E"/>
<rect x="1200" y="633" width="3" height="3" fill="#3B487E"/>
<rect x="1376" y="633" width="3" height="3" fill="#3B487E"/>
<rect x="743" y="53" width="3" height="3" fill="#3B487E"/>
<rect x="1384" y="53" width="3" height="3" fill="#3B487E"/>
<rect x="669" y="463" width="3" height="3" fill="#3B487E"/>
<rect x="35" y="471" width="3" height="3" fill="#3B487E"/>
<rect x="743" y="145" width="3" height="3" fill="#3B487E"/>
<rect x="217" y="471" width="3" height="3" fill="#3B487E"/>
<rect x="925" y="145" width="3" height="3" fill="#3B487E"/>
<rect x="399" y="471" width="3" height="3" fill="#3B487E"/>
<rect x="1107" y="145" width="3" height="3" fill="#3B487E"/>
<rect x="745" y="756" width="3" height="3" fill="#3B487E"/>
<rect x="1025" y="756" width="3" height="3" fill="#3B487E"/>
<rect x="1120" y="756" width="3" height="3" fill="#3B487E"/>
<rect x="1214" y="756" width="3" height="3" fill="#3B487E"/>
<rect x="126" y="471" width="3" height="3" fill="#3B487E"/>
<rect x="834" y="145" width="3" height="3" fill="#3B487E"/>
<rect x="308" y="471" width="3" height="3" fill="#3B487E"/>
<rect x="1016" y="145" width="3" height="3" fill="#3B487E"/>
<rect x="490" y="471" width="3" height="3" fill="#3B487E"/>
<rect x="1198" y="145" width="3" height="3" fill="#3B487E"/>
<rect x="581" y="471" width="3" height="3" fill="#3B487E"/>
<rect x="1289" y="145" width="3" height="3" fill="#3B487E"/>
<rect x="1384" y="260" width="3" height="3" fill="#3B487E"/>
<rect x="1372" y="318" width="15" height="3" fill="#3B487E"/>
<rect x="1287" y="354" width="100" height="3" fill="#3B487E"/>
<rect x="669" y="471" width="3" height="3" fill="#3B487E"/>
<rect x="126" y="395" width="3" height="3" fill="#3B487E"/>
<rect x="309" y="395" width="3" height="3" fill="#3B487E"/>
<rect x="398" y="395" width="3" height="3" fill="#3B487E"/>
<rect x="501" y="343" width="3" height="3" fill="#3B487E"/>
<rect x="591" y="343" width="3" height="3" fill="#3B487E"/>
<rect x="126" y="343" width="3" height="3" fill="#3B487E"/>
<rect x="138" y="343" width="3" height="3" fill="#3B487E"/>
<rect x="230" y="343" width="3" height="3" fill="#3B487E"/>
<rect x="309" y="343" width="3" height="3" fill="#3B487E"/>
<rect x="309" y="191" width="3" height="3" fill="#3B487E"/>
<rect x="309" y="146" width="3" height="3" fill="#3B487E"/>
<rect x="398" y="146" width="3" height="3" fill="#3B487E"/>
<rect x="398" y="689" width="3" height="3" fill="#3B487E"/>
<rect x="584" y="606" width="3" height="3" fill="#3B487E"/>
<rect x="409" y="140" width="6" height="3" fill="#3B487E"/>
<rect x="409" y="683" width="6" height="3" fill="#3B487E"/>
<rect x="595" y="600" width="6" height="3" fill="#3B487E"/>
<rect x="491" y="140" width="9" height="3" transform="rotate(90 491 140)" fill="#3B487E"/>
<rect x="491" y="683" width="9" height="3" transform="rotate(90 491 683)" fill="#3B487E"/>
<rect x="677" y="600" width="9" height="3" transform="rotate(90 677 600)" fill="#3B487E"/>
<rect x="504" y="140" width="9" height="3" transform="rotate(90 504 140)" fill="#3B487E"/>
<rect x="504" y="683" width="9" height="3" transform="rotate(90 504 683)" fill="#3B487E"/>
<rect x="690" y="600" width="9" height="3" transform="rotate(90 690 600)" fill="#3B487E"/>
<rect x="593" y="139" width="9" height="3" transform="rotate(90 593 139)" fill="#3B487E"/>
<rect x="501" y="37" width="5" height="10" transform="rotate(90 501 37)" fill="#3B487E"/>
<rect x="753" y="37" width="5" height="10" transform="rotate(90 753 37)" fill="#3B487E"/>
<rect x="398" y="191" width="3" height="3" fill="#3B487E"/>
<rect x="306" y="94" width="3" height="3" fill="#3B487E"/>
<rect x="430" y="94" width="3" height="3" fill="#3B487E"/>
<rect x="306" y="86" width="3" height="3" fill="#3B487E"/>
<rect x="430" y="86" width="3" height="3" fill="#3B487E"/>
<rect x="126" y="191" width="3" height="3" fill="#3B487E"/>
<rect x="306" y="62" width="15" height="15" fill="#3B487E"/>
<rect x="35" y="446" width="10" height="10" fill="#3B487E"/>
<rect x="743" y="120" width="10" height="10" fill="#3B487E"/>
<rect x="35" y="547" width="10" height="10" fill="#3B487E"/>
<rect x="217" y="446" width="10" height="10" fill="#3B487E"/>
<rect x="925" y="120" width="10" height="10" fill="#3B487E"/>
<rect x="1377" y="120" width="10" height="10" fill="#3B487E"/>
<rect x="1377" y="211" width="10" height="10" fill="#3B487E"/>
<rect x="399" y="446" width="10" height="10" fill="#3B487E"/>
<rect x="1107" y="120" width="10" height="10" fill="#3B487E"/>
<rect x="745" y="731" width="10" height="10" fill="#3B487E"/>
<rect x="1025" y="731" width="10" height="10" fill="#3B487E"/>
<rect x="1214" y="731" width="10" height="10" fill="#3B487E"/>
<rect x="1395" y="733" width="10" height="10" fill="#3B487E"/>
<path d="M1350.11 715.775V719.79H1340.48V714.51C1340.48 709.963 1343.18 707.69 1348.57 707.69H1355.22C1360.69 707.69 1363.42 709.963 1363.42 714.51V719.57C1363.42 721.403 1363.11 722.98 1362.48 724.3C1361.9 725.583 1360.93 726.977 1359.57 728.48L1352.75 736.125H1363.42V743H1340.76V736.73L1351.21 725.51C1352.31 724.373 1353.04 723.402 1353.41 722.595C1353.78 721.752 1353.96 720.725 1353.96 719.515V715.775C1353.96 714.968 1353.5 714.565 1352.58 714.565H1351.48C1350.57 714.565 1350.11 714.968 1350.11 715.775ZM1375.89 715.775V719.79H1366.27V714.51C1366.27 709.963 1368.96 707.69 1374.35 707.69H1381.01C1386.47 707.69 1389.2 709.963 1389.2 714.51V719.57C1389.2 721.403 1388.89 722.98 1388.27 724.3C1387.68 725.583 1386.71 726.977 1385.35 728.48L1378.53 736.125H1389.2V743H1366.54V736.73L1376.99 725.51C1378.09 724.373 1378.82 723.402 1379.19 722.595C1379.56 721.752 1379.74 720.725 1379.74 719.515V715.775C1379.74 714.968 1379.28 714.565 1378.37 714.565H1377.27C1376.35 714.565 1375.89 714.968 1375.89 715.775Z" fill="#3B487E"/>
</g>
</svg>
