<svg width="38" height="38" viewBox="0 0 38 38" fill="none" xmlns="http://www.w3.org/2000/svg">
<circle cx="18.6775" cy="18.6775" r="18.6775" fill="#585858"/>
<path d="M27.101 12.0189C27.101 12.9937 26.3108 13.784 25.336 13.784C24.3612 13.784 23.571 12.9937 23.571 12.0189C23.571 11.0442 24.3612 10.2539 25.336 10.2539C26.3108 10.2539 27.101 11.0442 27.101 12.0189Z" fill="#1E1E1D"/>
<path fill-rule="evenodd" clip-rule="evenodd" d="M18.8643 24.3741C22.1136 24.3741 24.7477 21.74 24.7477 18.4907C24.7477 15.2414 22.1136 12.6073 18.8643 12.6073C15.6149 12.6073 12.9809 15.2414 12.9809 18.4907C12.9809 21.74 15.6149 24.3741 18.8643 24.3741ZM18.8643 22.0207C20.8139 22.0207 22.3943 20.4403 22.3943 18.4907C22.3943 16.5411 20.8139 14.9607 18.8643 14.9607C16.9147 14.9607 15.3342 16.5411 15.3342 18.4907C15.3342 20.4403 16.9147 22.0207 18.8643 22.0207Z" fill="#1E1E1D"/>
<path fill-rule="evenodd" clip-rule="evenodd" d="M7.09745 18.02C7.09745 14.066 7.09745 12.089 7.86695 10.5788C8.54383 9.25031 9.62388 8.17026 10.9523 7.49338C12.4626 6.72388 14.4396 6.72388 18.3936 6.72388H19.3349C23.289 6.72388 25.266 6.72388 26.7762 7.49338C28.1047 8.17026 29.1847 9.25031 29.8616 10.5788C30.6311 12.089 30.6311 14.066 30.6311 18.02V18.9614C30.6311 22.9154 30.6311 24.8924 29.8616 26.4026C29.1847 27.7311 28.1047 28.8111 26.7762 29.488C25.266 30.2575 23.289 30.2575 19.3349 30.2575H18.3936C14.4396 30.2575 12.4626 30.2575 10.9523 29.488C9.62388 28.8111 8.54383 27.7311 7.86695 26.4026C7.09745 24.8924 7.09745 22.9154 7.09745 18.9614V18.02ZM18.3936 9.07724H19.3349C21.3508 9.07724 22.7211 9.07907 23.7804 9.16561C24.8121 9.24991 25.3397 9.40271 25.7078 9.59024C26.5934 10.0415 27.3135 10.7615 27.7647 11.6472C27.9523 12.0152 28.1051 12.5429 28.1894 13.5746C28.2759 14.6338 28.2777 16.0042 28.2777 18.02V18.9614C28.2777 20.9772 28.2759 22.3476 28.1894 23.4068C28.1051 24.4385 27.9523 24.9662 27.7647 25.3342C27.3135 26.2199 26.5934 26.9399 25.7078 27.3912C25.3397 27.5787 24.8121 27.7315 23.7804 27.8158C22.7211 27.9023 21.3508 27.9042 19.3349 27.9042H18.3936C16.3778 27.9042 15.0074 27.9023 13.9482 27.8158C12.9164 27.7315 12.3888 27.5787 12.0207 27.3912C11.1351 26.9399 10.4151 26.2199 9.96381 25.3342C9.77627 24.9662 9.62348 24.4385 9.53918 23.4068C9.45264 22.3476 9.45081 20.9772 9.45081 18.9614V18.02C9.45081 16.0042 9.45264 14.6338 9.53918 13.5746C9.62348 12.5429 9.77627 12.0152 9.96381 11.6472C10.4151 10.7615 11.1351 10.0415 12.0207 9.59024C12.3888 9.40271 12.9164 9.24991 13.9482 9.16561C15.0074 9.07907 16.3778 9.07724 18.3936 9.07724Z" fill="#1E1E1D"/>
</svg>
