<svg width="516" height="179" viewBox="0 0 516 179" fill="none" xmlns="http://www.w3.org/2000/svg">
<path d="M63.8505 49.771C61.8888 57.0626 60.0236 64.0331 58.1584 71.0036C57.2902 74.2158 56.3897 77.4279 55.6018 80.7365C55.2642 82.182 54.6532 82.712 53.0292 82.712C39.9889 82.6156 26.9487 82.712 13.9085 82.712H0C1.02907 78.8092 1.96166 75.1633 2.94249 71.4693C8.17359 52.0248 13.394 32.5696 18.6036 13.1037C18.9091 11.9152 19.1503 11.0319 20.7422 11.0479C38.2042 11.0479 55.6769 11.0479 73.1603 11.0479C73.4998 11.0671 73.8379 11.1046 74.1733 11.1604C73.2568 14.5814 72.3564 17.906 71.4559 21.2467C69.6068 28.2171 67.7577 35.2036 65.9729 42.1259C65.8469 42.7375 65.5645 43.306 65.153 43.7761C64.7416 44.2461 64.2153 44.6017 63.6254 44.8081C60.0846 46.2342 56.6322 47.87 53.2864 49.7067L63.8505 49.771ZM26.1448 66.4101C29.8591 66.4101 33.2518 66.4101 36.6445 66.4101C36.8756 66.3862 37.0973 66.3064 37.2906 66.1777C37.4839 66.049 37.6429 65.8752 37.7539 65.6713C38.7348 62.2343 39.6191 58.7972 40.616 55.0068C36.2747 56.9181 32.2709 58.6687 28.2833 60.4515C27.9422 60.6058 27.6763 60.8887 27.5437 61.2385C27.0613 62.7643 26.6593 64.4667 26.1448 66.4101ZM47.9803 27.4301C44.3303 27.4301 40.8251 27.4301 37.3198 27.4301C37.1408 27.4417 36.9671 27.4958 36.8133 27.588C36.6594 27.6802 36.5299 27.8078 36.4354 27.9601C35.4546 31.4614 34.5381 34.9627 33.5251 38.7852C37.8343 37.0667 41.8059 35.3 45.7131 33.5494C46.1653 33.3175 46.5108 32.9207 46.6779 32.4412C47.1603 30.8832 47.514 29.2771 47.9803 27.4301Z" fill="#ECE8E1"/>
<path d="M113.632 82.6465C114.532 79.1613 115.336 75.8688 116.22 72.5923C121.58 52.6446 126.94 32.7022 132.3 12.7652C132.621 11.5285 133.103 11.0627 134.342 11.0627H186.519C186.919 11.1007 187.316 11.1651 187.708 11.2555C180.376 38.7519 173.044 66.1197 165.616 93.7607L146.771 82.8553L152.752 60.7072L142.928 55.0216C142.108 57.8805 141.32 60.5787 140.58 63.293C138.972 69.2356 137.477 75.1781 135.757 81.1046C135.596 81.6989 134.92 82.5822 134.47 82.5822C127.62 82.6786 120.755 82.6465 113.632 82.6465ZM148.652 33.1626L158.509 38.8643L161.596 27.6216H150.18L148.652 33.1626Z" fill="#ECE8E1"/>
<path d="M181.952 55.1512C182.965 51.2484 183.882 47.6346 184.846 44.053C187.644 33.6455 190.49 23.2701 193.24 12.8626C193.577 11.5617 194.06 11.0477 195.41 11.0477C212.679 11.0477 229.954 11.0477 247.234 11.0477C247.73 11.0771 248.224 11.1361 248.713 11.2244C247.298 16.5245 245.947 21.6962 244.516 26.8678C244.42 27.2533 243.889 27.6227 243.487 27.8154L219.706 38.255L222.536 27.5424H211.136L208.129 38.6726H241.284C240.657 41.2102 240.127 43.4909 239.532 45.6913C236.316 57.4961 233.1 69.2848 230.013 81.0254C229.707 82.1657 229.321 82.6315 228.132 82.6315C210.648 82.6315 193.175 82.6315 175.713 82.6315C175.412 82.615 175.111 82.5829 174.813 82.5351C174.764 82.1673 174.764 81.7947 174.813 81.4269C176.035 76.8977 177.209 72.3685 178.543 67.8715C178.85 66.9687 179.496 66.2201 180.344 65.7835C187.934 62.3625 195.571 59.054 203.53 55.5688C202.566 59.2949 201.649 62.7801 200.717 66.3457H212.085L215.156 55.103L181.952 55.1512Z" fill="#ECE8E1"/>
<path d="M266.915 27.4297H250.337C251.704 22.226 253.038 17.2149 254.325 12.1878C254.662 10.8708 255.659 11.0315 256.608 11.0315H309.669C308.302 16.2192 306.984 21.1499 305.698 26.1127C305.392 27.3012 304.604 27.4458 303.527 27.4458C298.703 27.4458 293.767 27.4458 288.686 27.4458C282.769 49.4814 276.851 71.485 270.902 93.6973C269.294 92.7658 267.686 91.8824 266.078 90.9669C261.882 88.5417 257.717 86.1486 253.504 83.6913C253.265 83.6108 253.045 83.4808 252.859 83.3099C252.673 83.1389 252.525 82.9307 252.425 82.699C252.325 82.4672 252.275 82.217 252.278 81.9646C252.281 81.7122 252.338 81.4633 252.443 81.234C257.246 63.5669 262 45.8998 266.705 28.2328C266.792 27.9697 266.862 27.7015 266.915 27.4297Z" fill="#ECE8E1"/>
<path d="M61.0043 82.4226C68.3579 55.0225 75.7114 27.5904 83.065 0.126129L101.926 11.0155C96.9896 29.4535 92.0693 47.779 87.1009 66.3134H109.162C108.374 67.6786 107.779 68.7547 107.152 69.8147C104.82 73.6854 102.521 77.5721 100.125 81.3946C99.9554 81.6959 99.7248 81.9586 99.448 82.166C99.1712 82.3734 98.8541 82.5209 98.5171 82.5992C86.2487 82.5992 73.9802 82.5992 61.7118 82.5992C61.4695 82.57 61.2319 82.5107 61.0043 82.4226Z" fill="#ECE8E1"/>
<path d="M316.951 83.6351C319.782 73.0403 322.549 62.6246 325.331 52.2089C328.781 39.1893 332.28 26.3161 335.681 13.3453C336.12 11.7178 336.657 10.9692 338.593 10.9855C355.631 11.0831 372.668 10.9855 389.689 10.9855H392.049C390.991 14.9728 390.031 18.7484 389.006 22.5241C383.668 42.314 378.429 61.8434 373.221 81.5357C372.782 83.1631 372.147 83.6676 370.488 83.6676C353.325 83.6676 336.163 83.6676 319.001 83.6676L316.951 83.6351ZM343.394 67.2303C346.892 67.2303 350.147 67.2303 353.385 67.2303C354.687 67.2303 355.11 66.7909 355.419 65.6029C357.632 57.1076 359.959 48.6285 362.237 40.1495C363.36 35.9669 364.483 31.7844 365.638 27.4391C362.124 27.4391 358.82 27.4391 355.517 27.4391C354.248 27.4391 353.89 27.9436 353.629 29.0665C352.555 33.2328 351.384 37.3665 350.277 41.5165C347.999 49.9305 345.753 58.4095 343.394 67.2303Z" fill="#ECE8E1"/>
<path d="M378.673 83.5373C382.242 70.1596 385.789 56.8633 389.315 43.6483C392.06 33.2326 394.875 22.8223 397.76 12.4175C397.907 11.8967 398.541 11.1155 398.965 11.0992C405.913 11.0179 412.861 11.0992 420.119 11.0992C415.091 29.8475 410.127 48.4168 405.116 67.1325H416.702L434.683 0C435.194 0.200429 435.694 0.428612 436.18 0.683531C441.647 3.84079 447.131 7.07943 452.599 10.1716C453.787 10.8388 453.657 11.5712 453.396 12.5477C448.482 30.9922 443.557 49.4095 438.621 67.7998C437.368 72.5194 436.05 77.2065 434.829 81.9261C434.52 83.0816 434.097 83.6674 432.746 83.6674C415.074 83.6674 397.391 83.6674 379.698 83.6674C379.389 83.6349 379.079 83.5698 378.673 83.5373Z" fill="#ECE8E1"/>
<path d="M515.476 11.0507C514.012 16.5841 512.596 21.9059 511.132 27.3253H494.322C488.301 49.7679 482.313 72.1128 476.259 94.6531C470.955 91.6098 465.878 88.7129 460.817 85.7672C457.188 83.6678 457.172 83.6515 458.262 79.5666C462.883 62.2667 467.537 44.9832 472.24 27.488H455.398C456.814 22.1174 458.099 17.0235 459.531 11.9784C459.661 11.5227 460.833 11.0833 461.516 11.0833C470.157 11.0833 478.814 11.0833 487.455 11.0833L515.476 11.0507Z" fill="#ECE8E1"/>
<path d="M190.182 178.315C191.587 172.987 192.912 167.933 194.268 162.896C199.114 144.797 203.959 126.714 208.805 108.615C208.828 108.309 208.914 108.01 209.058 107.738C209.203 107.466 209.402 107.227 209.643 107.036C209.884 106.845 210.162 106.706 210.46 106.628C210.758 106.549 211.068 106.533 211.373 106.581C228.364 106.581 245.35 106.581 262.33 106.581C262.944 106.581 263.558 106.662 264.349 106.71C262.589 113.378 260.893 119.788 259.181 126.198C254.707 142.973 250.136 159.715 245.775 176.458C245.751 176.766 245.662 177.066 245.514 177.338C245.367 177.609 245.164 177.847 244.919 178.036C244.674 178.225 244.392 178.36 244.092 178.433C243.791 178.506 243.479 178.515 243.175 178.46C226.264 178.46 209.354 178.46 192.443 178.46C191.765 178.412 191.086 178.363 190.182 178.315ZM238.442 122.726C235.212 122.726 232.192 122.872 229.252 122.726C227.201 122.597 226.49 123.421 226.022 125.277C223.858 133.641 221.548 142.101 219.287 150.545C218.302 154.29 217.284 158.036 216.202 162.073C219.707 162.073 222.921 162.073 226.135 162.073C227.492 162.073 227.992 161.588 228.315 160.297C230.044 153.645 231.885 146.944 233.678 140.325C235.228 134.593 236.763 128.862 238.442 122.726Z" fill="#ECE8E1"/>
<path d="M251.395 178.218C253.398 170.694 255.352 163.412 257.307 156.131C259.067 149.527 260.924 142.924 262.604 136.288C262.627 136.007 262.708 135.734 262.843 135.486C262.977 135.238 263.163 135.021 263.386 134.849C263.61 134.677 263.867 134.554 264.142 134.488C264.416 134.421 264.701 134.413 264.978 134.464C274.669 134.464 284.36 134.464 294.051 134.545C294.427 134.621 294.816 134.617 295.19 134.532C295.565 134.446 295.917 134.282 296.223 134.049C296.528 133.817 296.781 133.522 296.964 133.184C297.146 132.846 297.254 132.474 297.281 132.09C297.96 129.055 298.816 126.052 299.688 122.694C295.925 122.694 292.404 122.694 288.883 122.694C288.463 122.694 287.897 123.582 287.72 124.147C286.799 127.198 285.991 130.266 285.087 133.608L266.287 122.872C267.66 117.737 269 112.748 270.308 107.743C270.615 106.5 271.52 106.613 272.408 106.613H298.929H323.156H325.659C324.157 112.296 322.752 117.673 321.314 123.017C319.021 131.606 316.679 140.195 314.434 148.849C314.405 149.128 314.319 149.398 314.181 149.642C314.042 149.887 313.855 150.099 313.631 150.268C313.406 150.436 313.149 150.556 312.876 150.62C312.603 150.685 312.32 150.692 312.044 150.641C302.24 150.641 292.436 150.641 282.616 150.561C282.308 150.506 281.993 150.515 281.69 150.589C281.386 150.663 281.102 150.799 280.854 150.989C280.606 151.179 280.401 151.418 280.251 151.692C280.101 151.966 280.01 152.268 279.983 152.579C279.24 155.679 278.368 158.746 277.496 162.121C281.275 162.121 284.812 162.121 288.333 162.121C288.753 162.121 289.319 161.233 289.496 160.668C290.385 157.681 291.111 154.662 292.08 151.384C294.309 152.643 296.425 153.806 298.541 155.017C302.159 157.116 305.745 159.279 309.395 161.297C309.632 161.375 309.85 161.5 310.037 161.664C310.223 161.829 310.374 162.031 310.48 162.256C310.586 162.481 310.645 162.726 310.653 162.975C310.66 163.224 310.617 163.471 310.525 163.703C309.319 168.148 308.119 172.594 306.924 177.039C306.681 177.943 306.391 178.654 305.147 178.573C287.671 178.573 270.185 178.573 252.687 178.573C252.249 178.485 251.817 178.366 251.395 178.218Z" fill="#ECE8E1"/>
<path d="M312.593 178.25C313.691 174.133 314.725 170.177 315.823 166.254C318.424 156.486 321.073 146.734 323.592 136.95C323.625 136.567 323.737 136.195 323.92 135.857C324.103 135.519 324.354 135.223 324.658 134.986C324.961 134.75 325.31 134.579 325.682 134.483C326.055 134.388 326.443 134.37 326.822 134.432C336.303 134.561 345.784 134.432 355.265 134.528C357.074 134.528 357.946 134.012 358.334 132.22C358.996 129.168 359.949 126.149 360.74 122.855C359.787 122.855 359.012 122.678 358.221 122.678C355.766 122.678 353.375 122.678 350.856 122.678C350.6 122.618 350.334 122.616 350.076 122.671C349.819 122.725 349.577 122.836 349.368 122.995C349.158 123.153 348.986 123.356 348.863 123.589C348.741 123.821 348.671 124.078 348.659 124.341C347.948 127.376 347.044 130.379 346.107 133.737L340.567 130.508C336.562 128.199 332.492 125.923 328.583 123.533C328.315 123.341 328.098 123.086 327.952 122.79C327.806 122.495 327.734 122.168 327.743 121.838C328.874 117.178 330.09 112.538 331.393 107.921C331.54 107.602 331.765 107.325 332.047 107.116C332.33 106.907 332.66 106.773 333.008 106.726C350.656 106.629 368.283 106.581 385.888 106.581C386.158 106.627 386.423 106.697 386.679 106.791C385.888 109.875 385.064 112.942 384.305 115.977C381.382 126.859 378.41 137.725 375.567 148.607C375.543 148.901 375.457 149.187 375.316 149.446C375.174 149.704 374.98 149.931 374.746 150.11C374.511 150.29 374.242 150.418 373.955 150.487C373.668 150.557 373.37 150.565 373.08 150.512C363.276 150.512 353.472 150.512 343.668 150.512C342.199 150.512 341.472 150.916 341.116 152.401C340.406 155.501 339.501 158.569 338.597 162.088H345.429C350.193 162.088 350.177 162.088 351.421 157.535C351.954 155.566 352.519 153.596 353.117 151.433C353.574 151.59 354.021 151.774 354.457 151.981C359.868 155.097 365.247 158.246 370.609 161.297C370.813 161.377 370.998 161.497 371.154 161.65C371.31 161.803 371.434 161.986 371.517 162.189C371.6 162.391 371.641 162.608 371.638 162.827C371.634 163.045 371.586 163.261 371.497 163.461C370.286 167.965 369.042 172.47 367.879 176.991C367.589 178.137 367.023 178.46 365.86 178.46C348.632 178.46 331.404 178.46 314.176 178.46C313.804 178.411 313.304 178.314 312.593 178.25Z" fill="#ECE8E1"/>
<path d="M129 178.218C131.843 167.562 134.621 157.229 137.399 146.799C138.319 143.392 139.321 140.018 140.096 136.595C140.467 134.98 141.178 134.448 142.858 134.448C152.403 134.448 161.965 134.448 171.51 134.448C173.481 134.448 174.401 133.883 174.741 131.929C175.371 128.926 176.243 125.988 177.147 122.597H172.092C170.477 122.597 168.732 122.597 167.053 122.597C166.834 122.561 166.611 122.569 166.396 122.623C166.181 122.677 165.979 122.774 165.804 122.909C165.628 123.043 165.482 123.213 165.374 123.406C165.267 123.6 165.2 123.814 165.179 124.034C164.404 127.118 163.564 130.185 162.595 133.592L154.341 128.845C151.289 127.069 148.236 125.277 145.151 123.566C144.231 123.049 143.875 122.549 144.182 121.467C145.41 116.962 146.573 112.442 147.768 107.921C147.8 107.703 147.878 107.493 147.994 107.306C148.111 107.118 148.265 106.957 148.447 106.831C148.628 106.706 148.834 106.619 149.05 106.576C149.267 106.532 149.49 106.534 149.706 106.581C161.965 106.581 174.224 106.581 186.499 106.581C187.326 106.6 188.136 106.822 188.857 107.227C192.556 109.293 196.174 111.505 199.921 113.507C201.116 114.169 201.019 114.96 200.761 115.897C198.822 123.194 196.836 130.427 194.865 137.774C193.88 141.406 192.846 145.039 191.958 148.704C191.635 150.125 191.005 150.528 189.584 150.512C179.78 150.512 169.96 150.512 160.156 150.432C159.848 150.377 159.531 150.386 159.227 150.46C158.923 150.533 158.637 150.669 158.388 150.859C158.139 151.049 157.932 151.288 157.781 151.562C157.629 151.836 157.536 152.138 157.507 152.45C156.764 155.55 155.892 158.617 155.036 161.992C158.815 161.992 162.353 161.992 165.874 161.992C166.277 161.992 166.859 161.104 167.02 160.522C167.925 157.535 168.716 154.516 169.605 151.271C171.123 152.111 172.512 152.886 173.885 153.644C178.229 156.147 182.542 158.73 186.919 161.168C187.153 161.251 187.369 161.379 187.552 161.547C187.735 161.715 187.883 161.918 187.985 162.145C188.088 162.371 188.144 162.616 188.149 162.864C188.155 163.112 188.11 163.359 188.017 163.59C186.806 168.03 185.578 172.47 184.431 176.926C184.404 177.159 184.33 177.384 184.213 177.587C184.096 177.791 183.94 177.969 183.753 178.111C183.566 178.252 183.352 178.355 183.125 178.412C182.897 178.469 182.661 178.48 182.429 178.444C165.114 178.411 147.843 178.401 130.615 178.411C130.098 178.411 129.678 178.298 129 178.218Z" fill="#ECE8E1"/>
</svg>
