<svg width="1689" height="964" viewBox="0 0 1689 964" fill="none" xmlns="http://www.w3.org/2000/svg">
<path d="M348.163 270.703C337.466 310.463 327.296 348.472 317.125 386.48C312.391 403.996 307.481 421.511 303.185 439.552C301.344 447.434 298.012 450.324 289.157 450.324C218.051 449.798 146.945 450.324 75.8399 450.324H-0.000244141C5.61105 429.043 10.6963 409.163 16.0445 389.02C44.5686 282.993 73.0342 176.908 101.441 70.7648C103.107 64.284 104.422 59.4673 113.102 59.5549C208.319 59.5549 303.594 59.5549 398.927 59.5549C400.778 59.6592 402.622 59.8638 404.451 60.1679C399.454 78.8218 394.544 96.9503 389.634 115.166C379.551 153.175 369.468 191.271 359.736 229.017C359.049 232.351 357.509 235.451 355.265 238.014C353.022 240.578 350.152 242.516 346.935 243.642C327.628 251.418 308.803 260.338 290.559 270.353L348.163 270.703ZM142.562 361.433C162.815 361.433 181.315 361.433 199.814 361.433C201.074 361.303 202.284 360.868 203.338 360.166C204.392 359.464 205.259 358.516 205.864 357.405C211.212 338.663 216.034 319.922 221.47 299.253C197.798 309.675 175.966 319.221 154.223 328.942C152.363 329.783 150.912 331.326 150.189 333.233C147.559 341.553 145.367 350.836 142.562 361.433ZM261.626 148.884C241.724 148.884 222.61 148.884 203.497 148.884C202.521 148.947 201.574 149.242 200.735 149.744C199.896 150.247 199.19 150.943 198.675 151.774C193.326 170.865 188.329 189.957 182.805 210.801C206.302 201.43 227.958 191.796 249.264 182.25C251.73 180.986 253.613 178.822 254.524 176.208C257.155 167.713 259.084 158.955 261.626 148.884Z" fill="#ECE8E1"/>
<path d="M619.608 449.966C624.518 430.962 628.902 413.008 633.724 395.143C662.95 286.372 692.175 177.63 721.401 68.9179C723.154 62.1745 725.785 59.6348 732.536 59.6348H1017.05C1019.23 59.8417 1021.4 60.1928 1023.53 60.6857C983.553 210.618 943.573 359.849 903.066 510.569L800.31 451.104L832.925 330.336L779.355 299.333C774.883 314.922 770.587 329.635 766.554 344.435C757.786 376.839 749.633 409.243 740.251 441.558C739.374 444.799 735.692 449.616 733.237 449.616C695.887 450.141 658.449 449.966 619.608 449.966ZM810.568 180.141L864.313 211.231L881.147 149.927H818.897L810.568 180.141Z" fill="#ECE8E1"/>
<path d="M992.146 300.04C997.67 278.759 1002.67 259.054 1007.93 239.525C1023.18 182.775 1038.7 126.2 1053.7 69.4499C1055.54 62.3562 1058.17 59.5537 1065.53 59.5537C1159.7 59.5537 1253.89 59.5537 1348.11 59.5537C1350.82 59.7141 1353.51 60.0357 1356.18 60.5171C1348.46 89.4175 1341.1 117.617 1333.3 145.817C1332.77 147.919 1329.88 149.933 1327.68 150.984L1198.01 207.909L1213.44 149.495H1151.28L1134.88 210.186H1315.67C1312.25 224.024 1309.36 236.459 1306.12 248.458C1288.58 312.827 1271.05 377.108 1254.21 441.127C1252.55 447.345 1250.44 449.885 1243.95 449.885C1148.62 449.885 1053.34 449.885 958.128 449.885C956.483 449.795 954.844 449.62 953.218 449.359C952.952 447.354 952.952 445.322 953.218 443.317C959.881 418.62 966.282 393.923 973.559 369.402C975.231 364.479 978.752 360.397 983.379 358.016C1024.76 339.363 1066.41 321.322 1109.81 302.317C1104.55 322.635 1099.55 341.64 1094.46 361.082H1156.45L1173.2 299.778L992.146 300.04Z" fill="#ECE8E1"/>
<path d="M1455.43 148.881H1365.03C1372.49 120.506 1379.76 93.1815 1386.78 65.7699C1388.62 58.5886 1394.05 59.4643 1399.23 59.4643H1688.56C1681.11 87.7517 1673.92 114.638 1666.9 141.699C1665.24 148.18 1660.94 148.968 1655.07 148.968C1628.76 148.968 1601.85 148.968 1574.14 148.968C1541.88 269.124 1509.61 389.105 1477.17 510.224C1468.4 505.144 1459.64 500.327 1450.87 495.336C1427.99 482.111 1405.28 469.062 1382.31 455.663C1381 455.224 1379.8 454.515 1378.79 453.583C1377.77 452.651 1376.97 451.516 1376.42 450.252C1375.88 448.988 1375.6 447.624 1375.62 446.248C1375.64 444.871 1375.94 443.514 1376.52 442.264C1402.71 345.929 1428.63 249.594 1454.29 153.259C1454.76 151.825 1455.14 150.363 1455.43 148.881V148.881Z" fill="#ECE8E1"/>
<path d="M332.644 448.745C372.741 299.338 412.839 149.757 452.936 0L555.78 59.3773C528.864 159.916 502.035 259.841 474.943 360.905H595.235C590.939 368.349 587.695 374.217 584.275 379.997C571.562 401.103 559.024 422.297 545.961 443.14C545.036 444.783 543.778 446.215 542.269 447.346C540.759 448.477 539.031 449.281 537.193 449.708C470.296 449.708 403.399 449.708 336.502 449.708C335.18 449.549 333.884 449.226 332.644 448.745V448.745Z" fill="#ECE8E1"/>
<path d="M158.825 903.922C174.264 846.151 189.348 789.356 204.521 732.561C223.332 661.568 242.409 591.373 260.954 520.646C263.35 511.772 266.278 507.69 276.837 507.779C369.738 508.311 462.639 507.779 555.452 507.779H568.318C562.55 529.52 557.315 550.109 551.725 570.697C522.621 678.606 494.05 785.096 465.656 892.474C463.26 901.348 459.8 904.099 450.749 904.099C357.168 904.099 263.586 904.099 170.005 904.099L158.825 903.922ZM303.012 814.47C322.09 814.47 339.836 814.47 357.493 814.47C364.592 814.47 366.899 812.074 368.585 805.596C380.652 759.273 393.34 713.038 405.763 666.804C411.885 643.997 418.008 621.191 424.308 597.497C405.142 597.497 387.129 597.497 369.117 597.497C362.196 597.497 360.244 600.248 358.824 606.371C352.968 629.089 346.579 651.629 340.546 674.258C328.123 720.138 315.878 766.372 303.012 814.47Z" fill="#ECE8E1"/>
<path d="M495.38 903.388C514.842 830.442 534.185 757.94 553.41 685.882C568.376 629.087 583.727 572.322 599.462 515.587C600.26 512.747 603.721 508.488 606.028 508.399C643.916 507.955 681.804 508.399 721.378 508.399C693.96 610.629 666.897 711.883 639.568 813.936H702.744L800.792 447.877C803.579 448.97 806.304 450.214 808.955 451.604C838.769 468.82 868.671 486.48 898.485 503.34C904.962 506.979 904.252 510.972 902.832 516.297C876.036 616.871 849.18 717.297 822.265 817.575C815.433 843.31 808.245 868.867 801.591 894.602C799.905 900.903 797.598 904.098 790.233 904.098C693.871 904.098 597.45 904.098 500.97 904.098C499.284 903.92 497.599 903.565 495.38 903.388Z" fill="#ECE8E1"/>
<path d="M1241.34 508.134C1233.36 538.306 1225.64 567.324 1217.65 596.875H1125.99C1093.16 719.25 1060.51 841.093 1027.5 964C998.574 947.405 970.89 931.609 943.295 915.547C923.508 904.099 923.419 904.01 929.364 881.736C954.564 787.404 979.941 693.16 1005.58 597.763H913.748C921.467 568.478 928.477 540.702 936.285 513.192C936.995 510.707 943.384 508.311 947.11 508.311C994.226 508.311 1041.43 508.311 1088.55 508.311L1241.34 508.134Z" fill="#ECE8E1"/>
</svg>
