<svg width="237" height="604" viewBox="0 0 237 604" fill="none" xmlns="http://www.w3.org/2000/svg">
<path d="M25.2552 255.941L5.43592 275.76L5.39954 363.03L5.36721 394.064L-39.1777 438.609L-39.1672 460.029L11.9305 460.008L81.8603 390.078L81.8716 362.978L49.2474 363.011L46.5153 360.279L46.5499 277.236L25.2552 255.941Z" stroke="#FF0054" stroke-opacity="0.6" stroke-width="3" stroke-miterlimit="10"/>
<path d="M90.5403 601.206L110.36 581.387L110.396 494.117L110.428 463.083L154.973 418.538L154.963 397.118L103.865 397.139L33.9352 467.069L33.9239 494.169L66.5481 494.136L69.2802 496.868L69.2455 579.911L90.5403 601.206Z" stroke="#FF0054" stroke-opacity="0.6" stroke-width="3" stroke-miterlimit="10"/>
<path d="M36.6376 2.99993L16.8183 22.8192L16.7819 110.088L16.7496 141.123L-27.7953 185.668L-27.7848 207.088L23.3128 207.067L93.2427 137.137L93.254 110.037L60.6298 110.07L57.8977 107.338L57.9323 24.2947L36.6376 2.99993Z" stroke="#FF0054" stroke-opacity="0.6" stroke-width="3" stroke-miterlimit="10"/>
<path d="M101.923 348.265L121.742 328.445L121.778 241.176L121.811 210.141L166.356 165.597L166.345 144.177L115.247 144.198L45.3176 214.128L45.3063 241.227L77.9305 241.194L80.6626 243.927L80.6279 326.97L101.923 348.265Z" stroke="#FF0054" stroke-opacity="0.6" stroke-width="3" stroke-miterlimit="10"/>
</svg>
