<svg width="38" height="38" viewBox="0 0 38 38" fill="none" xmlns="http://www.w3.org/2000/svg">
<circle cx="19.3132" cy="18.6775" r="18.6775" fill="#585858"/>
<path d="M14.7465 28.3899C12.0275 28.3899 9.49294 27.6105 7.35964 26.2658C9.17088 26.3813 12.3673 26.1047 14.3555 24.2358C11.3646 24.1005 10.0158 21.8399 9.83987 20.8738C10.094 20.9704 11.306 21.0864 11.9902 20.8159C8.54968 19.9657 8.02188 16.9902 8.13917 16.0821C8.78426 16.5265 9.87896 16.6811 10.309 16.6424C7.10312 14.3818 8.25646 10.9812 8.82336 10.247C11.124 13.3882 14.572 15.1524 18.8377 15.2505C18.7572 14.9029 18.7148 14.541 18.7148 14.1693C18.7148 11.5015 20.9028 9.33887 23.6018 9.33887C25.012 9.33887 26.2827 9.92925 27.1747 10.8736C28.1171 10.656 29.5353 10.1465 30.2286 9.70598C29.8792 10.9426 28.7912 11.9741 28.133 12.3565C28.1385 12.3695 28.1277 12.3434 28.133 12.3565C28.7111 12.2703 30.2753 11.974 30.8933 11.5608C30.5877 12.2555 29.4342 13.4106 28.4876 14.0572C28.6637 21.7122 22.7208 28.3899 14.7465 28.3899Z" fill="#1E1E1D"/>
</svg>
