<svg width="38" height="38" viewBox="0 0 38 38" fill="none" xmlns="http://www.w3.org/2000/svg">
<circle cx="18.6775" cy="18.6775" r="18.6775" fill="#585858"/>
<path d="M28.75 19C28.75 24.3848 24.3848 28.75 19 28.75C16.9461 28.75 15.0406 28.1149 13.469 27.0305L10.1364 27.8636L11.0097 24.5887C9.90075 23.0062 9.25 21.0791 9.25 19C9.25 13.6152 13.6152 9.25 19 9.25C24.3848 9.25 28.75 13.6152 28.75 19Z" fill="#585858"/>
<path fill-rule="evenodd" clip-rule="evenodd" d="M19 30.375C25.2822 30.375 30.375 25.2822 30.375 19C30.375 12.7178 25.2822 7.625 19 7.625C12.7178 7.625 7.625 12.7178 7.625 19C7.625 21.0401 8.16206 22.9547 9.10251 24.6103L7.625 30.375L13.5683 28.9968C15.1824 29.8757 17.0329 30.375 19 30.375ZM19 28.625C24.3157 28.625 28.625 24.3157 28.625 19C28.625 13.6843 24.3157 9.375 19 9.375C13.6843 9.375 9.375 13.6843 9.375 19C9.375 21.0524 10.0174 22.9548 11.1121 24.5171L10.25 27.75L13.5399 26.9275C15.0914 27.9981 16.9725 28.625 19 28.625Z" fill="#1E1E1D"/>
<path d="M16.1563 13.7189C15.8858 13.1757 15.4709 13.2237 15.0518 13.2237C14.3027 13.2237 13.1348 14.121 13.1348 15.7908C13.1348 17.1593 13.7378 18.6574 15.7698 20.8983C17.7309 23.061 20.3076 24.1797 22.4468 24.1417C24.5859 24.1036 25.0261 22.2628 25.0261 21.6411C25.0261 21.3656 24.8551 21.2281 24.7373 21.1907C24.0083 20.8409 22.6638 20.189 22.3579 20.0665C22.052 19.9441 21.8923 20.1097 21.793 20.1998C21.5156 20.4642 20.9656 21.2433 20.7774 21.4186C20.5891 21.5938 20.3084 21.5051 20.1915 21.4389C19.7617 21.2664 18.5961 20.748 17.6671 19.8473C16.5181 18.7335 16.4506 18.3503 16.2342 18.0092C16.061 17.7363 16.1881 17.5689 16.2515 17.4957C16.499 17.2101 16.8409 16.7691 16.9942 16.5499C17.1475 16.3308 17.0258 15.998 16.9527 15.7908C16.6387 14.8995 16.3726 14.1534 16.1563 13.7189Z" fill="#1E1E1D"/>
</svg>
