<svg width="38" height="38" viewBox="0 0 38 38" fill="none" xmlns="http://www.w3.org/2000/svg">
<circle cx="19.3225" cy="18.6775" r="18.6775" fill="#585858"/>
<path d="M7.94797 13.7719C8.056 12.1088 9.39314 10.8054 11.0577 10.7229C13.4682 10.6035 16.9134 10.4595 19.5093 10.4595C22.1052 10.4595 25.5504 10.6035 27.9608 10.7229C29.6254 10.8054 30.9626 12.1088 31.0706 13.7719C31.1741 15.3653 31.2761 17.326 31.2761 18.8643C31.2761 20.4027 31.1741 22.3634 31.0706 23.9568C30.9626 25.6199 29.6254 26.9233 27.9608 27.0058C25.5504 27.1252 22.1052 27.2692 19.5093 27.2692C16.9134 27.2692 13.4682 27.1252 11.0577 27.0058C9.39314 26.9233 8.056 25.6199 7.94797 23.9568C7.84447 22.3634 7.74247 20.4027 7.74247 18.8643C7.74247 17.326 7.84447 15.3653 7.94797 13.7719Z" fill="#1E1E1D"/>
<path d="M16.9878 15.5024V22.2263L23.7117 18.8644L16.9878 15.5024Z" fill="#585858"/>
</svg>
